<svg width="23" height="24" viewBox="0 0 23 24" fill="none" xmlns="http://www.w3.org/2000/svg">
<path d="M1.12189 0.178162C0.878139 0.290661 0.634389 0.506287 0.465639 0.759411C0.221889 1.13441 0.203139 1.21879 0.203139 2.18441C0.203139 3.06566 0.231264 3.22504 0.371889 3.31879C0.484389 3.39379 0.578139 3.39379 0.700014 3.31879C0.831264 3.23441 0.868764 3.02816 0.906264 2.21254C0.953139 1.24691 0.962514 1.19066 1.21564 0.975037L1.47814 0.750036H9.19376C16.8906 0.750036 16.9 0.750036 17.1156 0.946911C17.3125 1.13441 17.5 1.50004 17.5 1.69691C17.5 1.74379 17.425 1.81879 17.3406 1.84691C17.2469 1.88441 16.9188 2.09066 16.6 2.29691C16.1875 2.58754 15.8969 2.70941 15.5219 2.75629C14.3688 2.90629 14.0406 3.23441 13.8531 4.40629C13.7781 4.87504 13.6563 5.14691 13.3281 5.62504C12.6531 6.60004 12.6719 6.92816 13.4406 7.98754C13.6844 8.32504 13.7875 8.58754 13.8625 9.06566C14.0313 10.1532 14.2938 10.4532 15.2406 10.6407L15.7656 10.7532L15.8125 13.5375C15.8594 16.1625 15.8688 16.3313 16.0375 16.4625C16.3281 16.6688 16.5719 16.6219 17.0313 16.2563L17.4531 15.9188L17.4813 19.1719C17.5 21.9094 17.4813 22.4625 17.3594 22.7157C17.0688 23.325 17.5188 23.2969 9.53126 23.325C5.53751 23.3438 2.07814 23.325 1.85314 23.2969C1.58126 23.25 1.34689 23.1469 1.16876 22.9688L0.906264 22.7063V13.6032C0.906264 5.46566 0.887514 4.50004 0.756264 4.36879C0.559389 4.16254 0.371889 4.18129 0.250014 4.40629C0.184389 4.52816 0.156264 7.45316 0.175014 13.7157L0.203139 22.8375L0.456264 23.2219C0.606264 23.4469 0.868764 23.6813 1.11251 23.8032C1.52501 24 1.57189 24 9.13751 24C17.3781 24 17.125 24.0188 17.6688 23.5032C18.1094 23.1 18.1094 23.0813 18.1563 19.425L18.2031 15.9188L18.625 16.2563C19.0844 16.6219 19.3281 16.6688 19.6188 16.4625C19.7875 16.3407 19.7969 16.1813 19.825 14.2594C19.8531 12.1313 19.8156 11.8125 19.4875 11.8125C19.1219 11.8125 19.0938 11.9813 19.0938 13.8469C19.0938 14.8407 19.075 15.6563 19.0469 15.6563C19.0188 15.6563 18.7844 15.4875 18.5219 15.2813C18.2594 15.075 17.95 14.9063 17.8281 14.9063C17.7063 14.9063 17.3969 15.075 17.125 15.2907C16.8625 15.4969 16.6188 15.6563 16.6 15.6282C16.5813 15.6094 16.5719 14.5875 16.5813 13.3688L16.6094 11.1563L16.9844 11.4094C17.275 11.6157 17.4719 11.6719 17.8281 11.6719C18.2313 11.6719 18.3813 11.6157 18.925 11.2313C19.4313 10.8844 19.6844 10.7813 20.2 10.6875C21.325 10.5 21.625 10.2 21.7938 9.06566C21.8688 8.57816 21.9719 8.32504 22.225 7.97816C22.6844 7.35941 22.8719 6.87191 22.8063 6.52504C22.7688 6.36566 22.5625 5.96254 22.3281 5.62504C22 5.13754 21.8781 4.86566 21.775 4.29379C21.7 3.90004 21.5688 3.46879 21.4844 3.33754C21.3063 3.07504 20.8 2.85941 20.0125 2.72816C19.6188 2.66254 19.3281 2.53129 18.9813 2.26879C18.7094 2.06254 18.4094 1.87504 18.325 1.84691C18.2219 1.80941 18.1563 1.68754 18.1563 1.55629C18.1563 0.984411 17.7813 0.459412 17.1719 0.178162C16.8156 0.00941086 16.3844 3.62396e-05 9.15626 3.62396e-05C1.85314 3.62396e-05 1.49689 0.00941086 1.12189 0.178162ZM18.4469 2.74691C19.0563 3.21566 19.3469 3.33754 20.0969 3.46879C20.4719 3.52504 20.8188 3.62816 20.8656 3.69379C20.9219 3.75941 21.0344 4.14379 21.1094 4.55629C21.2219 5.14691 21.3344 5.40941 21.6719 5.90629C21.9063 6.24379 22.0938 6.61879 22.0938 6.73129C22.0938 6.85316 21.9063 7.21879 21.6719 7.54691C21.3156 8.04379 21.2219 8.26879 21.1188 8.86879C20.9688 9.70316 20.8188 9.89066 20.1906 9.98441C19.3844 10.1063 19.2531 10.1532 18.6719 10.5469C17.8375 11.1188 17.7438 11.1282 17.0313 10.5938C16.4969 10.2 16.2063 10.0782 15.4938 9.98441C14.8656 9.90004 14.6406 9.64691 14.5469 8.94379C14.4719 8.33441 14.35 8.03441 13.8813 7.39691C13.7031 7.15316 13.5625 6.86254 13.5625 6.74066C13.5625 6.61879 13.75 6.24379 13.9844 5.90629C14.3219 5.41879 14.4344 5.14691 14.5469 4.54691C14.6219 4.14379 14.7438 3.75004 14.8094 3.68441C14.875 3.60941 15.2313 3.50629 15.5875 3.45004C16.3094 3.34691 16.5719 3.22504 17.1906 2.75629C17.4156 2.57816 17.7063 2.43754 17.8188 2.43754C17.9406 2.43754 18.2219 2.57816 18.4469 2.74691Z" fill="#EF5023"/>
<path d="M17.5188 4.20004C17.4344 4.28441 17.2282 4.55629 17.0782 4.80941C16.8156 5.22191 16.7406 5.26879 16.1406 5.44691C15.7844 5.55941 15.4281 5.69066 15.3719 5.73754C15.1563 5.91566 15.2406 6.19691 15.6719 6.74066C16.0938 7.27504 16.0938 7.27504 16.0938 8.04379C16.0938 9.04691 16.1969 9.12191 17.1625 8.77504L17.8375 8.54066L18.4844 8.77504C18.9907 8.96254 19.1782 8.99066 19.3469 8.91566C19.5438 8.82191 19.5625 8.75629 19.5625 8.04379C19.5719 7.26566 19.5719 7.26566 19.9844 6.71254C20.6125 5.87816 20.575 5.76566 19.5157 5.44691C18.9157 5.26879 18.8407 5.22191 18.5782 4.80941C18.0813 4.01254 17.8469 3.87191 17.5188 4.20004ZM18.1469 5.42816C18.4 5.81254 18.5125 5.90629 18.8875 6.00004C19.1313 6.06566 19.3563 6.15004 19.4032 6.18754C19.4407 6.21566 19.3188 6.44066 19.1313 6.68441C18.8032 7.10629 18.7938 7.15316 18.85 7.64066C18.8782 7.92191 18.8969 8.15629 18.8782 8.15629C18.8594 8.15629 18.6157 8.08129 18.3344 7.97816C17.9032 7.83754 17.7813 7.82816 17.5 7.92191C16.6656 8.21254 16.7219 8.23129 16.7969 7.70629C16.8625 7.20004 16.7969 7.00316 16.4031 6.52504C16.1406 6.20629 16.1781 6.15941 16.7688 6.00004C17.1438 5.90629 17.2563 5.81254 17.5094 5.42816C17.6688 5.17504 17.8094 4.96879 17.8282 4.96879C17.8469 4.96879 17.9875 5.17504 18.1469 5.42816Z" fill="#EF5023"/>
<path d="M8.42501 2.35313C8.18126 2.475 7.90938 2.71875 7.76876 2.93438C7.53438 3.29063 7.51563 3.38438 7.51563 4.3125C7.51563 5.24063 7.53438 5.33438 7.77813 5.7C7.91876 5.91563 8.03126 6.21563 8.03126 6.36563C8.03126 6.60938 7.97501 6.675 7.59063 6.84375C6.83126 7.18125 6.53126 7.55625 6.34376 8.4C6.19376 9.05625 6.20313 9.4875 6.38126 9.825C6.66251 10.3688 6.85938 10.4062 9.17501 10.4062C11.0969 10.4062 11.2938 10.3875 11.575 10.2188C11.7438 10.1156 11.95 9.88125 12.0344 9.70313C12.175 9.4125 12.1844 9.29063 12.0813 8.69063C11.9219 7.74375 11.5938 7.24688 10.9094 6.90938C10.4219 6.66563 10.375 6.61875 10.375 6.34688C10.375 6.17813 10.4781 5.84063 10.6094 5.5875C10.8063 5.20313 10.8438 4.99688 10.8438 4.32188C10.8344 3.15 10.5625 2.625 9.78438 2.29688C9.31563 2.1 8.90313 2.11875 8.42501 2.35313ZM9.82188 3.17813C9.97188 3.32813 10.0938 3.49688 10.0938 3.55313C10.0938 3.68438 9.50313 3.7875 9.11876 3.7125C8.89376 3.66563 8.75313 3.69375 8.65001 3.79688C8.46251 3.98438 8.46251 4.06875 8.65001 4.25625C8.85626 4.4625 9.18438 4.52813 9.67188 4.4625L10.0938 4.39688V4.77188C10.0938 5.33438 9.69063 5.76563 9.15626 5.76563C8.82813 5.76563 8.71563 5.70938 8.49063 5.45625C8.23751 5.16563 8.21876 5.10938 8.21876 4.30313C8.21876 3.4875 8.22813 3.44063 8.49063 3.17813C8.70626 2.9625 8.84688 2.90625 9.15626 2.90625C9.46563 2.90625 9.60626 2.9625 9.82188 3.17813ZM9.62501 6.74063C9.62501 7.05938 9.40938 7.17188 8.96876 7.07813C8.73438 7.03125 8.68751 6.96563 8.68751 6.74063C8.68751 6.47813 8.69688 6.46875 9.15626 6.46875C9.61563 6.46875 9.62501 6.47813 9.62501 6.74063ZM8.40626 7.59375C8.88438 7.8375 9.45626 7.82813 9.97188 7.58438C10.3656 7.39688 10.3844 7.3875 10.675 7.56563C11.0781 7.8 11.3125 8.23125 11.3781 8.85938C11.425 9.28125 11.3969 9.4125 11.2656 9.5625C11.1063 9.74063 10.975 9.75 9.21251 9.75C6.92501 9.75 6.85001 9.72188 6.94376 8.9625C7.03751 8.2875 7.31876 7.73438 7.68438 7.55625C8.05001 7.37813 7.97501 7.36875 8.40626 7.59375Z" fill="#EF5023"/>
<path d="M2.06875 12.1312C1.96562 12.3937 2.07813 12.6094 2.30313 12.6094C2.56563 12.6094 2.74375 12.375 2.65938 12.15C2.58438 11.9625 2.13438 11.9531 2.06875 12.1312Z" fill="#EF5023"/>
<path d="M3.35314 12.1312C3.26876 12.2344 3.25939 12.3187 3.34376 12.4594C3.44689 12.6562 3.48439 12.6562 9.10939 12.6562C14.7344 12.6562 14.7719 12.6562 14.875 12.4594C15.1281 11.9906 15.1938 12 9.10939 12C4.31876 12 3.44689 12.0187 3.35314 12.1312Z" fill="#EF5023"/>
<path d="M2.06875 14.0062C1.96563 14.2687 2.07813 14.4844 2.30313 14.4844C2.60313 14.4844 2.7625 14.2219 2.60313 14.025C2.44375 13.8375 2.13438 13.8281 2.06875 14.0062Z" fill="#EF5023"/>
<path d="M3.35313 14.0532C3.2875 14.1751 3.2875 14.2688 3.37188 14.3813C3.475 14.5219 3.98125 14.5313 9.14688 14.5126C14.3125 14.4844 14.8188 14.4751 14.9031 14.3251C14.9781 14.2126 14.9688 14.1282 14.8844 14.0251C14.7719 13.8938 14.1438 13.8751 9.1 13.8751C3.68125 13.8751 3.4375 13.8844 3.35313 14.0532Z" fill="#EF5023"/>
<path d="M2.06879 15.8813C2.04066 15.9563 2.03129 16.0969 2.05004 16.1907C2.09691 16.425 2.62191 16.425 2.66879 16.1907C2.73441 15.8438 2.19066 15.5626 2.06879 15.8813Z" fill="#EF5023"/>
<path d="M3.34373 15.9469C3.09061 16.4156 3.02498 16.4062 9.10936 16.4062C15.1937 16.4062 15.1281 16.4156 14.875 15.9469C14.7719 15.75 14.7344 15.75 9.10936 15.75C3.48436 15.75 3.44686 15.75 3.34373 15.9469Z" fill="#EF5023"/>
<path d="M2.15313 17.6907C1.98438 17.7469 2.00313 18.1407 2.16251 18.2719C2.34063 18.4219 2.68751 18.2532 2.68751 18.0188C2.68751 17.7188 2.44376 17.5688 2.15313 17.6907Z" fill="#EF5023"/>
<path d="M3.4 17.775C3.31563 17.85 3.25 17.9531 3.25 18C3.25 18.0469 3.31563 18.15 3.4 18.225C3.53125 18.3562 4.17813 18.375 9.10938 18.375C14.0406 18.375 14.6875 18.3562 14.8188 18.225C14.9031 18.15 14.9688 18.0469 14.9688 18C14.9688 17.9531 14.9031 17.85 14.8188 17.775C14.6875 17.6437 14.0406 17.625 9.10938 17.625C4.17813 17.625 3.53125 17.6437 3.4 17.775Z" fill="#EF5023"/>
<path d="M2.14374 19.6126C1.96561 19.7907 2.01249 20.1376 2.21874 20.2032C2.62187 20.3344 2.86562 19.7907 2.50937 19.5938C2.28437 19.4719 2.28437 19.4719 2.14374 19.6126Z" fill="#EF5023"/>
<path d="M3.40941 19.6687C3.21253 19.8844 3.21253 19.9219 3.40003 20.1C3.53128 20.2312 4.17816 20.25 9.10941 20.25C14.0407 20.25 14.6875 20.2312 14.8188 20.1C15.0063 19.9125 15.0063 19.8469 14.8 19.6594C14.6407 19.5187 14.1063 19.5 9.09066 19.5C3.85003 19.5 3.55003 19.5094 3.40941 19.6687Z" fill="#EF5023"/>
<path d="M2.06878 21.6C1.97503 21.8438 2.07815 22.0781 2.27503 22.1063C2.52815 22.1438 2.71565 21.9094 2.64065 21.6563C2.57503 21.4313 2.14378 21.3938 2.06878 21.6Z" fill="#EF5023"/>
<path d="M3.35316 21.6375C3.29691 21.7406 3.29691 21.8625 3.35316 21.9656C3.43754 22.1156 3.85004 22.125 9.10941 22.125C14.7344 22.125 14.7719 22.125 14.875 21.9281C15.1282 21.4594 15.1938 21.4688 9.10004 21.4688C3.77504 21.4688 3.43754 21.4781 3.35316 21.6375Z" fill="#EF5023"/>
</svg>
