<svg width="25" height="24" viewBox="0 0 25 24" fill="none" xmlns="http://www.w3.org/2000/svg">
<path fill-rule="evenodd" clip-rule="evenodd" d="M1.01913 1.09237C1.46595 0.645552 2.07196 0.394531 2.70386 0.394531H12.4999C12.9141 0.394531 13.2499 0.730318 13.2499 1.14453V3.65967H15.8316V1.14453C15.8316 0.730318 16.1674 0.394531 16.5816 0.394531C16.9958 0.394531 17.3316 0.730318 17.3316 1.14453V3.65967H20.7293V1.14453C20.7293 0.730318 21.0651 0.394531 21.4793 0.394531C21.8935 0.394531 22.2293 0.730318 22.2293 1.14453V3.65967H23.9284C24.3426 3.65967 24.6784 3.99546 24.6784 4.40967C24.6784 4.82389 24.3426 5.15967 23.9284 5.15967H22.2293V7.74139H23.9284C24.3426 7.74139 24.6784 8.07717 24.6784 8.49139C24.6784 8.9056 24.3426 9.24139 23.9284 9.24139H22.2293V11.8231H23.9284C24.3426 11.8231 24.6784 12.1589 24.6784 12.5731V20.7365C24.6784 21.3684 24.4274 21.9744 23.9806 22.4213C23.5338 22.8681 22.9278 23.1191 22.2959 23.1191H2.70386C2.07196 23.1191 1.46595 22.8681 1.01913 22.4213C0.572309 21.9744 0.321289 21.3684 0.321289 20.7365V2.7771C0.321289 2.14521 0.572309 1.53919 1.01913 1.09237ZM1.82129 6.79225H11.7499V12.5731C11.7499 12.9873 12.0856 13.3231 12.4999 13.3231H23.1784V20.7365C23.1784 20.9706 23.0854 21.1951 22.9199 21.3606C22.7544 21.5261 22.5299 21.6191 22.2959 21.6191H2.70386C2.46979 21.6191 2.2453 21.5261 2.07979 21.3606C1.91427 21.1951 1.82129 20.9706 1.82129 20.7365V6.79225ZM20.7293 11.8231V9.24139H17.3316V11.8231H20.7293ZM15.8316 11.8231V9.24139H13.2499V11.8231H15.8316ZM13.2499 7.74139H15.8316V5.15967H13.2499V7.74139ZM11.7499 5.29225V1.89453H8.35215V5.29225H11.7499ZM6.85215 5.29225V1.89453H2.70386C2.46979 1.89453 2.2453 1.98752 2.07979 2.15303C1.91427 2.31854 1.82129 2.54303 1.82129 2.7771V5.29225H6.85215ZM17.3316 5.15967V7.74139H20.7293V5.15967H17.3316Z" fill="#EF5023"/>
</svg>
