<svg width="22" height="24" viewBox="0 0 22 24" fill="none" xmlns="http://www.w3.org/2000/svg">
<path d="M9.62188 1.07969L8.29063 1.96094L8.2625 3.19844L8.23438 4.43594L6.89375 5.27969C5.81563 5.95469 5.51562 6.10469 5.39375 6.02969C5.3 5.97344 4.74688 5.61719 4.14688 5.23281L3.05938 4.52031L1.7375 5.38281L0.415625 6.23594L0.40625 7.61406V8.98281L1.625 9.77031L2.84375 10.5484V11.8141V13.0797L1.625 13.8672L0.40625 14.6453V16.0234V17.3922L1.7 18.2172C2.40313 18.6766 3.0125 19.0609 3.05 19.0609C3.07812 19.0703 3.64063 18.7328 4.2875 18.3109L5.46875 17.5422L6.86563 18.5453L8.27188 19.5484V20.7859L8.28125 22.0234L9.10625 22.5766C9.55625 22.8766 10.1656 23.2797 10.4563 23.4672L10.9813 23.8047L12.3031 22.9422L13.625 22.0797V20.8516V19.6234L14.8719 18.8453C15.5469 18.4141 16.2406 17.9734 16.4 17.8516L16.6813 17.6453L17.8156 18.3766L18.9406 19.1078L20.2625 18.2453L21.5938 17.3922V16.0141V14.6453L20.375 13.8578L19.1562 13.0797V11.8141V10.5484L20.375 9.77031L21.5938 8.98281V7.61406L21.5844 6.23594L20.2625 5.38281L18.9406 4.52031L17.7313 5.30781L16.5219 6.09531L15.0781 5.23281L13.625 4.37031V3.15156V1.92344L12.5188 1.21094C11.9188 0.817188 11.3188 0.423439 11.1875 0.348438C10.9625 0.207813 10.9156 0.226564 9.62188 1.07969ZM11.9844 1.42656C12.4719 1.75469 12.875 2.03594 12.875 2.06406C12.875 2.12031 11.0563 3.28281 10.9625 3.28281C10.9344 3.28281 10.475 3.01094 9.95938 2.67344L9.0125 2.06406L9.94063 1.45469C10.4469 1.11719 10.9156 0.845314 10.9813 0.845314C11.0375 0.845314 11.4969 1.10781 11.9844 1.42656ZM10.6063 3.69531C10.6906 3.77969 10.7188 4.07031 10.7 4.70781L10.6719 5.59844L9.7625 5.00781L8.84375 4.41719V3.47031V2.53281L9.66875 3.05781C10.1188 3.34844 10.5406 3.62969 10.6063 3.69531ZM13.1563 3.46094V4.38906L12.3875 4.88594C11.9563 5.15781 11.5156 5.43906 11.4031 5.51406L11.1875 5.64531V4.70781V3.77031L12.1531 3.15156C12.6781 2.81406 13.1188 2.53281 13.1375 2.53281C13.1469 2.53281 13.1563 2.95469 13.1563 3.46094ZM15.2 5.87969L16.25 6.49844V7.60469V8.72031L14.8344 9.42344L13.4281 10.1359L12.6125 9.62031C12.1625 9.32969 11.6094 8.97344 11.3844 8.82344L10.9813 8.55156L9.77188 9.33906L8.5625 10.1266L7.15625 9.42344L5.75 8.72031V7.65156V6.58281L7.10938 5.72969C7.85938 5.26094 8.50625 4.87656 8.5625 4.87656C8.61875 4.87656 9.18125 5.21406 9.81875 5.62656L10.9813 6.38594L12.1813 5.59844L13.3906 4.80156L13.7656 5.02656C13.9719 5.15781 14.6188 5.53281 15.2 5.87969ZM4.08125 5.77656L5.02813 6.38594L4.1 6.99531C3.58438 7.32344 3.10625 7.57656 3.02188 7.55781C2.84375 7.52031 1.15625 6.44219 1.15625 6.37656C1.16563 6.31094 2.96563 5.16719 3.06875 5.15781C3.10625 5.15781 3.56563 5.43906 4.08125 5.77656ZM19.9156 5.73906C20.4219 6.06719 20.8438 6.34844 20.8438 6.37656C20.8438 6.42344 19.0719 7.60469 18.9688 7.63281C18.9406 7.63281 18.4813 7.36094 17.9469 7.01406L16.9719 6.38594L17.9 5.77656C18.4062 5.43906 18.8656 5.16719 18.9125 5.16719C18.9594 5.15781 19.4094 5.42031 19.9156 5.73906ZM1.98125 7.53906L2.84375 8.09219V9.02031C2.84375 9.74219 2.81563 9.93906 2.73125 9.88281C2.66563 9.84531 2.21563 9.56406 1.74688 9.25469L0.875 8.70156V7.76406C0.875 7.02344 0.903125 6.85469 0.996875 6.91094C1.0625 6.94844 1.5125 7.22969 1.98125 7.53906ZM18.6875 9.02031C18.6875 9.74219 18.6594 9.93906 18.575 9.88281C18.5094 9.84531 18.0875 9.56406 17.6375 9.26406L16.8125 8.71094V7.78281V6.84531L17.75 7.46406L18.6875 8.09219V9.02031ZM21.125 7.76406V8.69219L20.3563 9.20781C19.925 9.48906 19.4844 9.77031 19.3719 9.83594L19.1562 9.94844V9.02031V8.09219L20.1219 7.47344C20.6469 7.12656 21.0875 6.84531 21.1063 6.84531C21.1156 6.84531 21.125 7.25781 21.125 7.76406ZM5.1875 7.84844L5.17813 8.76719L4.5125 9.18906C4.14688 9.42344 3.725 9.68594 3.575 9.77969L3.3125 9.95781V9.02031V8.09219L4.18438 7.51094C4.65313 7.20156 5.075 6.93906 5.12188 6.93906C5.15938 6.93906 5.1875 7.35156 5.1875 7.84844ZM6.93125 9.86406L8.28125 10.5484V11.7672V12.9859L9.5 13.7828L10.7188 14.5797V16.1828V17.7953L9.67813 18.4703C9.05 18.8734 8.58125 19.1172 8.49688 19.0891C8.4125 19.0516 7.76563 18.6016 7.05313 18.0859L5.75 17.1484V15.9109V14.6734L4.53125 13.8766L3.3125 13.0797V11.8141V10.5484L4.325 9.87344C4.87813 9.50781 5.38438 9.19844 5.45938 9.19844C5.525 9.18906 6.19063 9.49844 6.93125 9.86406ZM11.9469 9.77031C12.4531 10.0984 12.875 10.3797 12.875 10.4078C12.875 10.4734 11.0656 11.6547 10.9719 11.6453C10.9344 11.6453 10.475 11.3641 9.95938 11.0266L9.0125 10.4172L9.94063 9.80781C10.4469 9.47969 10.8969 9.19844 10.9438 9.19844C10.9906 9.18906 11.4406 9.45156 11.9469 9.77031ZM17.6562 9.86406L18.6875 10.5484V11.8234V13.0891L17.4688 13.8859L16.25 14.6734V16.0328V17.3922L14.825 18.2922L13.3906 19.1922L12.2938 18.4797L11.1875 17.7672L11.2063 16.1734L11.2344 14.5891L12.4062 13.8109L13.5781 13.0328L13.625 11.7953L13.6719 10.5484L15.0313 9.87344C15.7813 9.50781 16.4375 9.19844 16.5031 9.19844C16.5688 9.18906 17.0844 9.49844 17.6562 9.86406ZM10.7188 13.0516C10.7188 13.7734 10.6906 13.9703 10.6063 13.9141C10.5406 13.8766 10.1188 13.5953 9.66875 13.2953L8.84375 12.7422V11.8141V10.8766L9.78125 11.4953L10.7188 12.1234V13.0516ZM13.1563 11.7953V12.7234L12.2188 13.3422C11.7031 13.6891 11.2625 13.9703 11.2344 13.9703C11.2063 13.9703 11.1875 13.5578 11.1875 13.0516V12.1422L12.1531 11.5141C12.6781 11.1578 13.1188 10.8766 13.1375 10.8766C13.1469 10.8766 13.1563 11.2891 13.1563 11.7953ZM4.27813 14.2984L5 14.7859L4.0625 15.4047C3.54688 15.7516 3.10625 16.0328 3.07812 16.0328C2.94688 16.0328 1.14688 14.7953 1.20313 14.7391C1.23125 14.7016 1.67188 14.4109 2.16875 14.0922C3.05938 13.5297 3.0875 13.5109 3.3125 13.6609C3.44375 13.7453 3.875 14.0359 4.27813 14.2984ZM20.075 14.2422C20.4969 14.5141 20.8438 14.7578 20.8438 14.7766C20.8438 14.8047 20.4219 15.0953 19.9062 15.4328C18.8281 16.1266 19.0344 16.1359 17.7688 15.3016L16.9906 14.7766L17.9563 14.1484C18.8094 13.5859 18.9406 13.5297 19.1094 13.6328C19.2125 13.6984 19.6438 13.9703 20.075 14.2422ZM1.90625 15.8922L2.84375 16.4922V17.3922C2.84375 17.8797 2.81563 18.2828 2.77813 18.2828C2.75 18.2828 2.30938 18.0203 1.79375 17.7016L0.875 17.1109V16.2016C0.875 15.6953 0.89375 15.2828 0.921875 15.2828C0.95 15.2828 1.39063 15.5547 1.90625 15.8922ZM5.1875 16.2016V17.1297L4.25 17.7578L3.3125 18.3766L3.32188 17.4203V16.4547L4.23125 15.8734C4.72813 15.5453 5.15 15.2828 5.16875 15.2828C5.17813 15.2828 5.1875 15.6953 5.1875 16.2016ZM18.05 16.0609L18.6875 16.4547V17.4203V18.3766L17.75 17.7578L16.8125 17.1297V16.1922V15.2641L17.1219 15.4609C17.2812 15.5734 17.7031 15.8453 18.05 16.0609ZM21.125 16.1922V17.1109L20.2812 17.6547C19.0719 18.4328 19.1562 18.4516 19.1562 17.4016V16.5016L20.075 15.9016C20.5719 15.5641 21.0125 15.2922 21.0594 15.2922C21.0969 15.2828 21.125 15.6953 21.125 16.1922ZM12.1156 18.9484C12.5375 19.2109 12.875 19.4547 12.8656 19.4922C12.8656 19.5578 11.0656 20.7203 10.9719 20.7203C10.9438 20.7203 10.4844 20.4391 9.96875 20.1016L9.0125 19.4734L9.9875 18.8453C10.8688 18.2734 10.9719 18.2266 11.15 18.3391C11.2625 18.4047 11.6938 18.6766 12.1156 18.9484ZM9.90313 20.6453L10.7188 21.1984V22.1266V23.0641L9.78125 22.4453L8.84375 21.8172V20.8891C8.84375 20.1672 8.87188 19.9703 8.96563 20.0266C9.02188 20.0641 9.44375 20.3453 9.90313 20.6453ZM13.1563 20.8797V21.7984L12.4344 22.2672C12.05 22.5203 11.6 22.8109 11.4594 22.9047L11.1875 23.0828V22.1547V21.2172L12.1063 20.5984C12.6031 20.2609 13.0438 19.9797 13.0906 19.9797C13.1281 19.9703 13.1563 20.3828 13.1563 20.8797Z" fill="#EF5023"/>
<path d="M6.64986 3.31279C6.49986 3.42529 6.49049 3.46279 6.60299 3.63154C6.69674 3.80029 6.75299 3.80966 6.94049 3.72529C7.18424 3.61279 7.19362 3.57529 7.02487 3.35029C6.87486 3.16279 6.86549 3.15341 6.64986 3.31279Z" fill="#EF5023"/>
<path d="M14.7688 3.38492C14.6282 3.60054 14.6282 3.59117 14.9001 3.73179C15.0501 3.81617 15.1063 3.79742 15.2095 3.63804C15.322 3.45992 15.3126 3.42242 15.1626 3.30992C14.9376 3.15054 14.9095 3.15054 14.7688 3.38492Z" fill="#EF5023"/>
<path d="M5.75969 3.83491C5.66594 3.90054 5.65657 3.95679 5.74094 4.11616C5.86282 4.34116 5.88157 4.35054 6.13469 4.21929C6.27532 4.13491 6.29407 4.07866 6.21907 3.93804C6.11594 3.74116 5.96594 3.70366 5.75969 3.83491Z" fill="#EF5023"/>
<path d="M15.5936 3.93804C15.5186 4.07866 15.5374 4.13491 15.678 4.21929C15.9311 4.35054 15.9499 4.34116 16.0718 4.11616C16.1561 3.95679 16.1468 3.90054 16.053 3.83491C15.8468 3.70366 15.6968 3.74116 15.5936 3.93804Z" fill="#EF5023"/>
<path d="M4.97186 4.32346C4.84998 4.39846 4.83123 4.45471 4.90623 4.60471C5.01873 4.80159 5.18748 4.83909 5.35623 4.67034C5.42186 4.60471 5.43123 4.51096 5.36561 4.38909C5.26248 4.19221 5.20623 4.18284 4.97186 4.32346Z" fill="#EF5023"/>
<path d="M16.4471 4.38982C16.3815 4.5117 16.3909 4.60545 16.4565 4.67107C16.6253 4.83982 16.794 4.80232 16.9065 4.59607C16.9815 4.45545 16.9628 4.3992 16.8221 4.31482C16.5784 4.19295 16.5503 4.19295 16.4471 4.38982Z" fill="#EF5023"/>
</svg>
