<svg width="36" height="22" viewBox="0 0 36 22" fill="none" xmlns="http://www.w3.org/2000/svg">
<path d="M24.8342 0.354687C24.6936 0.453125 24.5389 0.748436 24.4827 1.00156C24.3983 1.4375 24.328 1.49375 23.653 1.6625C22.4577 1.97187 21.7967 2.36562 21.7967 2.7875C21.7967 3.29375 22.1061 3.33594 23.1749 2.94219C23.6952 2.75937 24.3842 2.54844 24.7077 2.49219C25.3686 2.39375 25.5514 2.23906 25.6217 1.70469L25.6639 1.325L26.7467 1.95781L27.8295 2.57656L26.9295 3.35C26.4374 3.77187 25.9733 4.10937 25.8889 4.10937C25.8045 4.10937 25.7342 3.95469 25.7342 3.77187C25.7342 3.20937 25.4389 3.08281 24.5389 3.26562C22.542 3.67344 20.3764 5.2625 19.378 7.04844L18.8858 7.93437L18.717 7.47031C18.5624 7.03437 18.5905 6.95 19.1811 6.07812C19.5327 5.57187 20.0108 4.98125 20.2358 4.75625C20.742 4.26406 20.8124 3.74375 20.3764 3.61719C20.1374 3.53281 19.9264 3.67344 19.392 4.19375C18.9983 4.57344 18.5342 5.12187 18.3374 5.40312L17.9717 5.92344L17.3108 5.05156C16.003 3.35 13.8374 1.97187 11.728 1.49375C10.1952 1.15625 8.05767 1.28281 6.56704 1.78906C4.3311 2.5625 2.23579 4.3625 1.15298 6.47187C0.267041 8.17344 0.0842285 8.975 0.0842285 11C0.0842285 12.5187 0.140479 12.9125 0.463916 13.8828C0.899853 15.2047 1.64517 16.5125 2.32017 17.1453C2.96704 17.75 3.61392 17.7781 4.24673 17.2016C4.8936 16.625 4.86548 16.0625 4.1061 14.9094C2.37642 12.2516 2.43267 9.38281 4.24673 6.8375C4.69673 6.20469 4.72485 5.85312 4.31704 5.6C4.09204 5.47344 3.97954 5.52969 3.59985 5.97969C2.34829 7.38594 1.75767 9.22812 1.87017 11.3516C1.94048 12.9828 2.3061 14.1359 3.14985 15.4016C3.67017 16.175 3.74048 16.625 3.33267 16.625C2.89673 16.625 1.71548 14.5297 1.32173 13.0672C1.0686 12.0828 1.0686 9.86094 1.33579 8.82031C2.46079 4.50312 6.89048 1.63437 11.1233 2.46406C13.8655 2.99844 16.2702 4.8125 17.4092 7.20312C18.0561 8.58125 18.2249 9.22812 18.4077 11.2953C18.5764 12.9969 18.8858 13.9672 19.6874 15.2047C21.192 17.525 23.6249 18.875 26.2827 18.875C27.6749 18.875 28.6592 18.6359 29.8827 18.0453C30.867 17.5531 31.2889 17.1594 31.1623 16.8359C31.0077 16.4141 30.642 16.4562 29.4889 17.0328C28.7577 17.3984 27.9702 17.6656 27.3233 17.7781C23.9061 18.3406 20.5452 16.0203 19.617 12.4484C18.7592 9.18594 20.6295 5.78281 23.9483 4.55937C24.7358 4.26406 24.7499 4.25 24.7499 4.53125C24.7499 4.93906 25.2561 5.375 25.7202 5.375C26.0155 5.375 26.4655 5.09375 27.4217 4.30625C28.1249 3.72969 28.7717 3.08281 28.8702 2.88594C29.1233 2.30937 28.7717 1.8875 27.2108 1.00156C25.7764 0.171875 25.2702 0.03125 24.8342 0.354687Z" fill="#EF5023"/>
<path d="M8.85915 3.08282C7.50915 3.29376 5.70915 3.98282 5.56853 4.33438C5.47009 4.58751 5.59665 4.91095 5.83572 5.00938C5.94822 5.05157 6.34197 4.95313 6.70759 4.78438C9.21072 3.67345 11.6857 3.92657 13.781 5.50157C15.2154 6.58438 16.1435 8.1172 16.467 9.90313C16.9732 12.7156 15.3982 15.8375 12.8951 17.0328C11.6998 17.6094 11.3904 17.6797 11.3904 17.4125C11.3904 17.0469 10.856 16.625 10.4201 16.625C10.1248 16.625 9.67478 16.9063 8.71853 17.6938C7.25603 18.9031 7.01697 19.2828 7.32634 19.8313C7.57947 20.2813 10.181 21.8141 10.7154 21.8141C11.2217 21.8281 11.6717 21.3781 11.6717 20.8719C11.6717 20.5203 11.742 20.4641 12.3185 20.3094C13.317 20.0422 14.3154 19.5781 14.3998 19.3391C14.5123 19.0719 14.2451 18.5938 14.006 18.5938C13.9076 18.5938 13.542 18.7203 13.1904 18.875C12.8529 19.0156 12.1357 19.2547 11.6013 19.3953C10.631 19.6484 10.617 19.6625 10.5467 20.1688L10.4763 20.675L9.39353 20.0422L8.31072 19.4234L9.21072 18.65C9.7029 18.2281 10.167 17.8906 10.2513 17.8906C10.3357 17.8906 10.406 18.0453 10.406 18.2422C10.406 18.7203 10.7154 18.8188 11.6295 18.6219C13.5138 18.2281 15.806 16.4844 16.6638 14.7969L17.0576 14.0234L17.2545 14.4875C17.4935 15.05 17.4232 15.2047 16.2842 16.5969C15.4404 17.6375 15.342 17.9469 15.7779 18.2281C15.9888 18.3547 16.1435 18.2703 16.6638 17.75C17.0154 17.3984 17.4654 16.8922 17.6623 16.5969L18.0279 16.0766L18.6748 16.9484C20.3763 19.1703 23.4279 20.7031 26.2263 20.7031C28.3217 20.7031 30.6982 19.8594 32.3717 18.5234C34.7342 16.6531 36.1545 13.4469 35.9576 10.4375C35.831 8.44063 34.8326 5.90938 33.7357 4.82657C33.1592 4.23595 32.2732 4.20782 31.7248 4.75626C31.1623 5.33282 31.1904 6.00782 31.7951 6.8797C33.3701 9.11563 33.567 11.8016 32.3295 14.1922C31.7951 15.2328 31.7529 15.5422 32.1467 15.6969C32.5263 15.8375 32.8779 15.5141 33.3279 14.6141C33.9467 13.3625 34.1717 12.3781 34.1717 10.9719C34.1717 9.43907 33.7076 7.87813 32.892 6.6547C32.3295 5.81095 32.2592 5.37501 32.681 5.37501C33.117 5.37501 34.2842 7.45626 34.6498 8.84845C34.9451 9.95938 34.9451 12.0547 34.6498 13.1656C33.9045 16.0625 31.317 18.6219 28.392 19.3813C27.1967 19.6906 25.1998 19.6906 24.117 19.3672C21.192 18.5375 18.6467 15.9641 17.9435 13.1656C17.817 12.7156 17.6623 11.6328 17.592 10.7891C17.381 8.31407 16.7763 6.93595 15.1732 5.34688C13.4717 3.65938 10.9404 2.75938 8.85915 3.08282Z" fill="#EF5023"/>
<path d="M8.325 6.52812C8.24063 6.6125 8.15625 6.8375 8.15625 7.00625C8.15625 7.49844 7.81875 7.69531 7.3125 7.48438C7.0875 7.38594 6.80625 7.34375 6.70781 7.38594C6.48281 7.47031 5.20312 9.63594 5.20312 9.94531C5.20312 10.0578 5.35781 10.2547 5.55469 10.3812C5.76563 10.5078 5.90625 10.7469 5.90625 10.9297C5.90625 11.1125 5.76563 11.3516 5.55469 11.4781C5.35781 11.6047 5.20312 11.8016 5.20312 11.9141C5.20312 12.2234 6.48281 14.3891 6.70781 14.4734C6.80625 14.5156 7.0875 14.4734 7.3125 14.375C7.81875 14.1641 8.15625 14.3609 8.15625 14.8812C8.15625 15.4016 8.6625 15.6406 9.80156 15.6406C11.1516 15.6406 11.5313 15.4859 11.5313 14.9516C11.5313 14.3891 11.9813 14.1219 12.4734 14.3891C12.9516 14.6422 13.1766 14.4734 13.8797 13.3062C14.5688 12.1672 14.6109 11.8297 14.1328 11.45C13.9359 11.2953 13.7813 11.0562 13.7813 10.9297C13.7813 10.8031 13.9359 10.5641 14.1328 10.4094C14.6109 10.0297 14.5688 9.69219 13.8797 8.55312C13.1766 7.38594 12.9516 7.21719 12.4734 7.47031C11.9813 7.7375 11.5594 7.47031 11.5031 6.87969L11.4609 6.42969L9.98438 6.3875C8.95781 6.35938 8.45156 6.40156 8.325 6.52812ZM10.5891 7.72344C10.6875 8.20156 11.7141 8.79219 12.3188 8.72187C12.6422 8.69375 12.7547 8.76406 12.9797 9.14375C13.2328 9.56562 13.2328 9.62187 13.0219 9.86094C12.8672 10.0297 12.7969 10.3672 12.7969 10.9297C12.7969 11.4922 12.8672 11.8297 13.0219 11.9984C13.2328 12.2375 13.2328 12.2937 12.9797 12.7156C12.7547 13.0953 12.6422 13.1656 12.3188 13.1375C11.7141 13.0672 10.6875 13.6578 10.5891 14.1219C10.5188 14.4734 10.4484 14.5156 9.91406 14.5156C9.39375 14.5156 9.29531 14.4734 9.225 14.1781C9.1125 13.7 7.97344 13.0531 7.43906 13.1656C7.07344 13.2359 7.00313 13.1797 6.76406 12.7016C6.49688 12.1812 6.49688 12.1672 6.76406 11.9422C6.96094 11.7594 7.03125 11.5203 7.03125 10.9297C7.03125 10.3391 6.96094 10.1 6.76406 9.91719C6.49688 9.69219 6.49688 9.67812 6.76406 9.15781C7.00313 8.67969 7.07344 8.62344 7.43906 8.69375C7.97344 8.80625 9.1125 8.15937 9.225 7.68125C9.29531 7.38594 9.39375 7.34375 9.91406 7.34375C10.4484 7.34375 10.5188 7.38594 10.5891 7.72344Z" fill="#EF5023"/>
<path d="M8.91562 9.29844C8.24062 9.70625 8.01562 10.1281 8.01562 10.9438C8.01562 11.7453 8.325 12.2656 9 12.6172C10.2375 13.2641 11.8125 12.3219 11.8125 10.9297C11.8125 9.49531 10.1391 8.55313 8.91562 9.29844ZM10.3781 10.2406C10.8281 10.55 10.8 11.3375 10.3359 11.6469C10.0406 11.8438 9.91406 11.8438 9.5625 11.7031C8.87344 11.4219 8.81719 10.4938 9.45 10.1844C9.9 9.97344 10.0125 9.9875 10.3781 10.2406Z" fill="#EF5023"/>
<path d="M24.6375 6.52812C24.539 6.62656 24.4687 6.86562 24.4687 7.07656C24.4687 7.52656 24.075 7.72344 23.625 7.48438C23.4703 7.4 23.2172 7.35781 23.0765 7.41406C22.8375 7.48438 21.5156 9.66406 21.5156 9.9875C21.5156 10.0719 21.6703 10.2547 21.8672 10.4094C22.064 10.5641 22.2187 10.8031 22.2187 10.9297C22.2187 11.0703 22.064 11.3234 21.8672 11.5062C21.6703 11.6891 21.5156 11.9141 21.5156 12.0125C21.5297 12.1109 21.825 12.7016 22.1906 13.3203C22.8797 14.4734 23.2593 14.7406 23.6953 14.375C23.9765 14.1359 24.4687 14.4453 24.4687 14.8672C24.4687 15.4859 24.8062 15.6406 26.1 15.6406C27.4921 15.6406 27.8437 15.5 27.8437 14.9656C27.8437 14.4734 28.2937 14.1641 28.7015 14.3891C29.2359 14.6703 29.5734 14.4312 30.2062 13.3344C30.8953 12.1109 30.9375 11.8016 30.4453 11.4781C30.2484 11.3516 30.0937 11.1266 30.0937 10.9859C30.0937 10.8453 30.2484 10.6203 30.4453 10.4937C30.9234 10.1844 30.8953 9.86094 30.2203 8.66562C29.5593 7.45625 29.3343 7.2875 28.7156 7.5125C28.1812 7.72344 27.8437 7.48438 27.8437 6.92188C27.8437 6.69687 27.7453 6.5 27.6187 6.44375C27.2109 6.28906 24.8203 6.34531 24.6375 6.52812ZM26.8593 7.68125C26.8593 8.15937 28.2515 8.98906 28.6734 8.76406C28.9125 8.6375 28.9968 8.67969 29.2359 9.0875C29.5875 9.65 29.6015 9.81875 29.3203 9.93125C29.025 10.0437 29.025 11.6609 29.3203 11.9844C29.5171 12.2094 29.5171 12.2797 29.3062 12.7437C29.0812 13.1937 29.0109 13.25 28.6312 13.1797C28.0687 13.0812 26.8593 13.8125 26.8593 14.2344C26.8593 14.4734 26.7609 14.5156 26.2406 14.5156C25.7062 14.5156 25.6078 14.4734 25.5375 14.1781C25.425 13.7141 24.2578 13.0672 23.7375 13.1656C23.4281 13.2219 23.3156 13.1656 23.0765 12.7437C22.7812 12.2656 22.7812 12.2656 23.0625 11.9844C23.4562 11.5906 23.4562 10.3109 23.0625 9.94531C22.7812 9.69219 22.7812 9.69219 23.0906 9.15781C23.3437 8.69375 23.414 8.65156 23.7234 8.76406C24.1875 8.93281 25.2984 8.3 25.5093 7.7375C25.6359 7.38594 25.7203 7.34375 26.2547 7.34375C26.8031 7.34375 26.8593 7.37187 26.8593 7.68125Z" fill="#EF5023"/>
<path d="M25.3547 9.24219C24.7218 9.50938 24.3281 10.2125 24.3281 11.0563C24.3281 11.6609 24.3843 11.8016 24.8765 12.2797C25.3547 12.7719 25.4953 12.8281 26.1 12.8281C28.1812 12.8281 28.8703 10.3813 27.1125 9.3125C26.5781 8.98907 25.9875 8.96094 25.3547 9.24219ZM26.8312 10.325C26.9297 10.4234 27 10.6766 27 10.9156C27 11.7453 26.1703 12.1391 25.5937 11.5625C25.2562 11.225 25.2281 10.7609 25.5515 10.4094C25.8047 10.1281 26.5781 10.0719 26.8312 10.325Z" fill="#EF5023"/>
</svg>
