<svg width="18" height="24" viewBox="0 0 18 24" fill="none" xmlns="http://www.w3.org/2000/svg">
<path d="M0.900014 0.928126C0.750014 1.03125 0.543764 1.24688 0.431264 1.425C0.234389 1.73438 0.234389 1.78125 0.206264 9.77813C0.187514 15.3188 0.215639 17.8688 0.281264 18C0.403139 18.225 0.796889 18.2531 0.881264 18.0375C0.909389 17.9531 0.937514 14.775 0.937514 10.9594V4.03125L6.73126 4.05L12.5156 4.07813L12.5625 5.10938L12.6094 6.14063H12.8906H13.1719L13.2 3.98438C13.2281 1.65938 13.2 1.50938 12.7406 1.06875L12.4594 0.796876L6.81564 0.768751C1.38751 0.750001 1.16251 0.759376 0.900014 0.928126ZM12.2813 1.59375C12.525 1.8375 12.5813 2.09063 12.5438 2.76563L12.5156 3.32813L6.73126 3.35625L0.937514 3.375V2.625C0.937514 1.94063 0.965639 1.84688 1.17189 1.64063L1.39689 1.40625H6.75001C11.9438 1.40625 12.1031 1.41563 12.2813 1.59375Z" fill="#EF5023"/>
<path d="M6.4595 2.2125C6.37512 2.31562 6.36575 2.4 6.44075 2.5125C6.52512 2.64375 6.71262 2.67188 7.64075 2.67188C8.56887 2.67188 8.75637 2.64375 8.84075 2.5125C8.91575 2.4 8.90637 2.31562 8.822 2.2125C8.71887 2.09062 8.4845 2.0625 7.64075 2.0625C6.797 2.0625 6.56262 2.09062 6.4595 2.2125Z" fill="#EF5023"/>
<path d="M7.36863 5.08125C7.08738 5.52187 5.2405 10.3125 5.26863 10.5187C5.28738 10.6875 5.353 10.7344 5.56863 10.7344C5.83113 10.7344 5.84988 10.6969 6.86238 8.15625C8.02488 5.2125 8.02488 5.20312 7.87488 5.01562C7.70613 4.81875 7.528 4.8375 7.36863 5.08125Z" fill="#EF5023"/>
<path d="M3.36563 6.81562C2.84063 7.32187 2.53125 7.69687 2.53125 7.81875C2.53125 8.1 3.99375 9.65625 4.25625 9.65625C4.47188 9.65625 4.6875 9.49687 4.6875 9.34687C4.6875 9.3 4.3875 8.95312 4.0125 8.56875L3.34688 7.875L4.0125 7.18125C4.3875 6.79687 4.6875 6.44062 4.6875 6.39375C4.6875 6.2625 4.425 6 4.29375 6C4.2375 6 3.825 6.36562 3.36563 6.81562Z" fill="#EF5023"/>
<path d="M8.92494 6.11249C8.71869 6.31874 8.81244 6.50624 9.46869 7.17187L10.1249 7.83749L9.45932 8.55937C8.77494 9.30937 8.67182 9.58124 9.08432 9.63749C9.26244 9.66562 9.48744 9.49687 10.1343 8.84999C10.5937 8.39062 10.9687 7.95937 10.9687 7.87499C10.9687 7.68749 9.36557 5.99999 9.18744 5.99999C9.10307 5.99999 8.99057 6.04687 8.92494 6.11249Z" fill="#EF5023"/>
<path d="M11.8688 8.83126C11.7844 8.94376 11.7188 9.19689 11.7188 9.38439C11.7188 9.75001 11.625 9.87189 11.2688 9.98439C11.1094 10.0313 10.95 9.97501 10.6875 9.80626C10.4813 9.67501 10.2375 9.56251 10.1438 9.56251C9.93755 9.56251 8.81255 10.6781 8.81255 10.8844C8.81255 10.9688 8.9438 11.1938 9.0938 11.3906C9.25317 11.5875 9.37505 11.7563 9.37505 11.7656C9.37505 11.775 9.32817 11.9156 9.27192 12.075C9.18755 12.3188 9.10317 12.375 8.8313 12.4219C8.63442 12.45 8.3813 12.525 8.25005 12.5906C8.02505 12.7031 8.01567 12.7594 7.98755 13.5563C7.95942 14.55 8.0063 14.625 8.70942 14.7C9.08442 14.7281 9.18755 14.7844 9.27192 14.9719C9.42192 15.2906 9.40317 15.3844 9.14067 15.7688C9.00942 15.9563 8.9063 16.1906 8.9063 16.2844C8.9063 16.4906 10.0219 17.625 10.2188 17.625C10.3032 17.625 10.5282 17.4938 10.7157 17.3344C11.0344 17.0719 11.1094 17.0531 11.3719 17.1281C11.625 17.1938 11.6813 17.2688 11.7563 17.5781C11.8875 18.2344 11.9813 18.375 12.2813 18.4313C12.5344 18.4875 12.5625 18.525 12.5625 18.8531V19.2188H6.4688H0.384419L0.271919 19.4156C0.206294 19.5563 0.178169 20.0625 0.206294 20.9438C0.234419 22.1063 0.262544 22.3031 0.44067 22.6031C0.87192 23.2875 0.600045 23.2594 6.86255 23.2313L12.45 23.2031L12.7032 22.9688C13.1907 22.5188 13.2188 22.3688 13.2188 20.3438V18.4688H13.4344C13.8094 18.4688 13.9782 18.2625 14.0438 17.7281C14.1 17.2875 14.1375 17.2219 14.4094 17.1094C14.6813 16.9875 14.7282 16.9969 15.0657 17.2594C15.2625 17.4 15.5063 17.5313 15.6094 17.5313C15.8344 17.5313 16.9688 16.425 16.9688 16.2094C16.9688 16.125 16.8375 15.8906 16.6782 15.6938C16.4625 15.4219 16.4063 15.2813 16.4532 15.0938C16.5469 14.7281 16.65 14.6531 17.1563 14.5875C17.7375 14.5125 17.8125 14.3813 17.8125 13.4813C17.8125 12.6188 17.7094 12.45 17.1 12.3844C16.725 12.3375 16.6219 12.2813 16.4813 12.0375C16.3125 11.7469 16.3125 11.7469 16.5938 11.3625C16.7438 11.1469 16.875 10.8938 16.875 10.8C16.875 10.5844 15.75 9.46876 15.5344 9.46876C15.4407 9.46876 15.1969 9.60001 15 9.75939C14.6625 10.0313 14.6157 10.05 14.3438 9.93751C14.175 9.86251 14.0438 9.73126 14.0157 9.60001C13.8094 8.59689 13.8469 8.62501 12.8344 8.62501C12.0938 8.62501 12 8.64376 11.8688 8.83126ZM13.2563 9.48751C13.275 9.55314 13.3313 9.77814 13.3688 9.97501C13.4438 10.3219 13.4907 10.3594 14.0907 10.5938L14.7188 10.8563L15.0938 10.5844C15.3 10.4344 15.5063 10.3125 15.5438 10.3125C15.5907 10.3125 15.7219 10.4156 15.8438 10.5469C16.0782 10.8 16.0688 10.8375 15.6844 11.4469C15.5344 11.6906 15.5344 11.7188 15.7875 12.2906C15.9375 12.6188 16.0782 12.9094 16.0969 12.9375C16.1157 12.9563 16.3313 13.0031 16.575 13.0313L17.0157 13.0781V13.5V13.9125L16.6032 13.9875C16.1625 14.0625 15.9375 14.2031 15.9375 14.4C15.9375 14.4656 15.8438 14.7188 15.7313 14.9438L15.525 15.375L15.8344 15.7594L16.1532 16.1438L15.8625 16.4344L15.5719 16.7156L15.1969 16.4719C14.9907 16.3313 14.775 16.2188 14.7282 16.2188C14.5875 16.2188 13.5469 16.7156 13.4813 16.8188C13.4438 16.875 13.4063 17.0344 13.4063 17.175C13.4063 17.625 13.3219 17.7188 12.8907 17.7188H12.4969L12.4313 17.25L12.3657 16.7813L11.7375 16.4906C11.0625 16.1906 10.9969 16.1906 10.4813 16.6125L10.2188 16.8188L9.98442 16.5938C9.74067 16.3688 9.67505 16.0875 9.8438 15.9844C9.90005 15.9563 10.0032 15.8063 10.0782 15.6656C10.2 15.4219 10.1907 15.3563 9.96567 14.8031C9.70317 14.1375 9.62817 14.0625 9.26255 14.0625C8.81255 14.0625 8.7188 13.9781 8.7188 13.5563V13.1625L9.2063 13.0688L9.68442 12.9844L9.93755 12.3563C10.2188 11.6719 10.2282 11.7281 9.7313 11.0438C9.62817 10.9031 9.6563 10.8375 9.89067 10.5938L10.1813 10.3125L10.575 10.6031L10.9688 10.8938L11.5125 10.6781C12.2719 10.3688 12.375 10.2656 12.375 9.77814V9.37501H12.7969C13.0594 9.37501 13.2375 9.42189 13.2563 9.48751ZM12.5438 20.8594C12.5719 21.9281 12.5344 22.1531 12.2813 22.4063C12.1032 22.5844 11.9438 22.5938 6.75005 22.5938H1.39692L1.17192 22.3594C0.94692 22.1438 0.937545 22.0781 0.937545 21V19.875L6.7313 19.8938L12.5157 19.9219L12.5438 20.8594Z" fill="#EF5023"/>
<path d="M12.3376 11.7562C11.8032 11.9531 11.5126 12.1969 11.2595 12.6562C10.7626 13.5375 11.1001 14.6812 12.0001 15.1687C12.5532 15.4594 13.4063 15.4312 13.8938 15.1031C14.4751 14.7 14.672 14.3062 14.672 13.5469C14.672 12.975 14.6345 12.825 14.4095 12.4875C13.9688 11.8219 13.0501 11.4937 12.3376 11.7562ZM13.4813 12.5625C13.8657 12.7969 14.1001 13.3219 14.0157 13.7625C13.9595 14.0812 13.5188 14.625 13.322 14.625C13.2657 14.625 13.2188 14.3062 13.2001 13.8656C13.1813 13.275 13.1345 13.0781 13.0126 13.0031C12.7032 12.8062 12.5626 13.0781 12.5626 13.8844C12.5626 14.2969 12.5345 14.625 12.4876 14.625C12.3376 14.625 11.9907 14.3156 11.8595 14.0625C11.6626 13.6781 11.6813 13.2937 11.9345 12.9281C12.3188 12.3562 12.9188 12.2156 13.4813 12.5625Z" fill="#EF5023"/>
<path d="M4.94994 21.1031C4.75307 21.2156 4.73432 21.4781 4.89369 21.6375C4.96869 21.7125 5.51244 21.75 6.71244 21.75C8.14682 21.75 8.44682 21.7219 8.5687 21.6C8.7562 21.4219 8.7562 21.3281 8.5687 21.15C8.44682 21.0281 8.14682 21 6.76869 21C5.81244 21 5.04369 21.0469 4.94994 21.1031Z" fill="#EF5023"/>
</svg>
