<svg width="32" height="32" viewBox="0 0 32 32" fill="none" xmlns="http://www.w3.org/2000/svg">
<path d="M5.30859 0.182022C5.1625 0.248428 4.89688 0.46093 4.71094 0.660149L4.37891 1.01874V9.98359C4.37891 18.3906 4.39219 18.975 4.60469 19.1078C4.77734 19.2141 4.91016 19.2141 5.06953 19.1078C5.29531 18.975 5.30859 18.4703 5.34844 12.1617L5.375 5.37499H16H26.625L26.6516 12.1617C26.6914 18.4703 26.7047 18.975 26.9305 19.1078C27.0898 19.2141 27.2227 19.2141 27.3953 19.1078C27.6078 18.975 27.6211 18.3906 27.6211 9.98359V0.99218L27.1828 0.567179L26.7578 0.128899L16.1594 0.102335C10.3422 0.0890541 5.45469 0.128899 5.30859 0.182022ZM26.4656 1.28437C26.5719 1.39062 26.625 1.93515 26.625 2.87812V4.31249H16H5.375V2.87812C5.375 1.93515 5.42813 1.39062 5.53438 1.28437C5.76016 1.05859 26.2398 1.05859 26.4656 1.28437Z" fill="#EF5023"/>
<path d="M6.57043 2.38752C6.22512 2.81252 6.74309 3.4633 7.20793 3.17111C7.6595 2.87892 7.50012 2.1883 6.96887 2.1883C6.83606 2.1883 6.6634 2.28127 6.57043 2.38752Z" fill="#EF5023"/>
<path d="M8.69543 2.38752C8.35012 2.81252 8.86809 3.4633 9.33293 3.17111C9.78449 2.87892 9.62512 2.1883 9.09387 2.1883C8.96106 2.1883 8.7884 2.28127 8.69543 2.38752Z" fill="#EF5023"/>
<path d="M10.8204 2.38752C10.4751 2.81252 10.9931 3.4633 11.4579 3.17111C11.9095 2.87892 11.7501 2.1883 11.2189 2.1883C11.0861 2.1883 10.9134 2.28127 10.8204 2.38752Z" fill="#EF5023"/>
<path d="M18.2842 2.34691C18.0717 2.55941 18.085 2.91801 18.3108 3.10395C18.4303 3.2102 19.4928 3.25004 21.91 3.22348C25.0045 3.18363 25.3498 3.15707 25.4827 2.94457C25.5889 2.7852 25.5889 2.65238 25.4827 2.47973C25.3498 2.28051 25.0045 2.25395 21.8967 2.2141C19.3202 2.18754 18.4038 2.22738 18.2842 2.34691Z" fill="#EF5023"/>
<path d="M1.05859 3.36953C0.9125 3.43594 0.646875 3.64844 0.460938 3.84766L0.128906 4.20625V14.4195V24.6328L0.567188 25.0578L0.992188 25.4961H16H31.0078L31.4328 25.0578L31.8711 24.6328V14.4062V4.17969L31.4328 3.75469C31.0211 3.32969 30.9547 3.31641 29.9984 3.31641C29.175 3.31641 28.9492 3.35625 28.8297 3.55547C28.5641 3.98047 28.8828 4.24609 29.7594 4.28594C30.1844 4.3125 30.6094 4.39219 30.7023 4.47188C30.8352 4.57812 30.875 6.225 30.875 12.4273V20.25H16H1.125V12.4273C1.125 6.225 1.16484 4.57812 1.29766 4.47188C1.39062 4.39219 1.81563 4.3125 2.24063 4.28594C3.11719 4.24609 3.43594 3.98047 3.17031 3.54219C3.06406 3.36953 2.81172 3.30313 2.17422 3.28984C1.70938 3.27656 1.20469 3.31641 1.05859 3.36953ZM30.875 22.7469C30.875 23.6898 30.8219 24.2344 30.7156 24.3406C30.4898 24.5664 1.51016 24.5664 1.28438 24.3406C1.17813 24.2344 1.125 23.6898 1.125 22.7469V21.3125H16H30.875V22.7469Z" fill="#EF5023"/>
<path d="M14.5656 22.5346C14.4859 22.6143 14.4062 22.8003 14.4062 22.9198C14.4062 23.3448 14.7383 23.451 16.0664 23.4112C17.1289 23.3846 17.3945 23.3315 17.5141 23.1323C17.6203 22.9729 17.6203 22.8401 17.5141 22.6674C17.3945 22.4815 17.1289 22.4284 16.0531 22.4018C15.1367 22.3753 14.6852 22.4151 14.5656 22.5346Z" fill="#EF5023"/>
<path d="M17.2355 7.65946C17.1558 7.75243 16.359 10.0368 15.4691 12.7329C14.2605 16.372 13.8754 17.6868 13.9683 17.8462C14.141 18.1251 14.5926 18.1915 14.7652 17.9657C14.8449 17.8727 15.6418 15.5884 16.5316 12.8923C17.7402 9.25321 18.1254 7.93836 18.0324 7.77899C17.8597 7.50008 17.4082 7.43368 17.2355 7.65946Z" fill="#EF5023"/>
<path d="M9.79766 11.0993C8.69531 12.0157 8.03125 12.6665 8.03125 12.8126C8.03125 13.0649 11.2984 15.8938 11.6969 15.9735C11.9625 16.0399 12.2812 15.761 12.2812 15.4555C12.2812 15.2962 11.75 14.7649 10.8867 14.0477C10.1164 13.4235 9.49219 12.8657 9.49219 12.8126C9.49219 12.7595 10.1164 12.2016 10.8867 11.5641C11.6703 10.9134 12.2812 10.3024 12.2812 10.1696C12.2812 9.8907 12.0289 9.62508 11.7633 9.62508C11.6438 9.62508 10.7539 10.2891 9.79766 11.0993Z" fill="#EF5023"/>
<path d="M19.8781 9.78437C19.5461 10.1164 19.7586 10.4351 21.1133 11.5641C21.8836 12.2016 22.5078 12.7594 22.5078 12.8125C22.5078 12.8656 21.8836 13.4234 21.1133 14.0609C20.3297 14.7117 19.7188 15.3227 19.7188 15.4555C19.7188 15.7344 19.9711 16 20.25 16C20.582 16 23.9688 13.0914 23.9688 12.8125C23.9688 12.5336 20.582 9.62499 20.25 9.62499C20.1305 9.62499 19.9711 9.6914 19.8781 9.78437Z" fill="#EF5023"/>
<path d="M12.3081 27.2496C11.5909 28.3785 11.1261 28.7105 10.2495 28.7769C9.59875 28.8301 9.41281 28.9098 9.05422 29.2551C8.68234 29.6269 8.62922 29.773 8.58937 30.6098C8.54953 31.2207 8.58937 31.6059 8.69562 31.7387C8.94797 32.0441 23.0527 32.0441 23.305 31.7387C23.4113 31.6059 23.4511 31.2207 23.4113 30.6098C23.3714 29.773 23.3183 29.6269 22.9464 29.2551C22.5878 28.9098 22.4019 28.8301 21.7511 28.7769C21.087 28.7238 20.9144 28.6574 20.4761 28.2324C20.1972 27.9668 19.8253 27.5019 19.6394 27.1832C19.3605 26.7051 19.2409 26.6121 18.9488 26.6519C18.3909 26.7183 18.4042 27.2762 18.9753 28.0863L19.4534 28.7504H16.0003H12.5472L13.0253 28.0863C13.5964 27.2894 13.6097 26.7183 13.0652 26.6519C12.773 26.6121 12.6402 26.7183 12.3081 27.2496ZM22.2159 29.9723C22.3089 30.0652 22.3753 30.3043 22.3753 30.5035V30.8754H16.0003H9.62531V30.5035C9.62531 30.3043 9.69172 30.0652 9.78469 29.9723C10.0105 29.7465 21.9902 29.7465 22.2159 29.9723Z" fill="#EF5023"/>
</svg>
