<svg width="25" height="24" viewBox="0 0 25 24" fill="none" xmlns="http://www.w3.org/2000/svg">
<path fill-rule="evenodd" clip-rule="evenodd" d="M4.1001 1.94922C2.82791 1.94922 1.8501 2.93084 1.8501 4.07922V15.5992C1.8501 16.7466 2.82812 17.7292 4.1001 17.7292H10.0856C10.1118 17.7287 10.1382 17.7296 10.1647 17.732C10.2519 17.7394 10.3348 17.7618 10.411 17.7965C10.6179 17.8905 10.7694 18.0737 10.826 18.2897C10.8472 18.3708 10.855 18.4565 10.8474 18.5438C10.8451 18.5702 10.8415 18.5962 10.8366 18.6217L10.2415 22.0492H11.6001C12.0143 22.0492 12.3501 22.385 12.3501 22.7992C12.3501 23.2134 12.0143 23.5492 11.6001 23.5492H9.36457C9.35554 23.5494 9.34648 23.5494 9.33739 23.5492H7.1001C6.68588 23.5492 6.3501 23.2134 6.3501 22.7992C6.3501 22.385 6.68588 22.0492 7.1001 22.0492H8.71909L9.20867 19.2292H4.1001C2.05768 19.2292 0.350098 17.6318 0.350098 15.5992V4.07922C0.350098 2.0452 2.05788 0.449219 4.1001 0.449219H20.6001C22.6423 0.449219 24.3501 2.0452 24.3501 4.07922V14.1592C24.3501 14.5734 24.0143 14.9092 23.6001 14.9092C23.1859 14.9092 22.8501 14.5734 22.8501 14.1592V4.07922C22.8501 2.93084 21.8723 1.94922 20.6001 1.94922H4.1001Z" fill="#EF5023"/>
<path fill-rule="evenodd" clip-rule="evenodd" d="M17.6001 12.0273C17.1571 12.0273 16.8501 12.3652 16.8501 12.7173V17.7573C16.8501 18.0152 16.7177 18.2549 16.4994 18.3922C16.2812 18.5295 16.0078 18.545 15.7754 18.4334L14.6028 17.8702C14.6026 17.8701 14.6023 17.87 14.6021 17.8699C14.479 17.8112 14.3448 17.7798 14.2085 17.7778C14.0719 17.7758 13.9365 17.8033 13.8116 17.8585L13.8112 17.8586C13.5627 17.9682 13.3915 18.1745 13.3311 18.4074L13.331 18.4079C13.2542 18.7037 13.3596 19.0265 13.6278 19.2326L13.6336 19.237L13.6336 19.2371L17.2188 22.0473H22.8501V18.7563C22.8501 17.7397 22.0796 16.8329 20.975 16.6566L20.9749 16.6565L18.9817 16.3379C18.6178 16.2798 18.3501 15.9659 18.3501 15.5973V12.7173C18.3501 12.3652 18.0431 12.0273 17.6001 12.0273ZM15.3501 12.7173C15.3501 11.4795 16.3871 10.5273 17.6001 10.5273C18.8131 10.5273 19.8501 11.4795 19.8501 12.7173V14.9577L21.2116 15.1753C21.2116 15.1753 21.2116 15.1753 21.2117 15.1753C23.0002 15.461 24.3501 16.959 24.3501 18.7563V22.7973C24.3501 23.2116 24.0143 23.5473 23.6001 23.5473H16.9599C16.7921 23.5473 16.6292 23.4911 16.4972 23.3876L12.7108 20.4196C11.9816 19.8575 11.6468 18.9254 11.8792 18.0309M15.3501 12.7173V16.5651V12.7173ZM15.3501 16.5651L15.2506 16.5173L15.249 16.5165C14.9307 16.3646 14.5833 16.2832 14.2307 16.278C13.8782 16.2728 13.5287 16.3437 13.2062 16.486M0.350098 15.5973C0.350098 15.1831 0.685884 14.8473 1.1001 14.8473H10.1001C10.5143 14.8473 10.8501 15.1831 10.8501 15.5973C10.8501 16.0116 10.5143 16.3473 10.1001 16.3473H1.1001C0.685884 16.3473 0.350098 16.0116 0.350098 15.5973ZM13.2058 16.4862C12.5535 16.7739 12.0589 17.3376 11.8792 18.0307L13.2058 16.4862Z" fill="#EF5023"/>
</svg>
