<svg width="24" height="24" viewBox="0 0 24 24" fill="none" xmlns="http://www.w3.org/2000/svg">
<path d="M1.93125 0.1875C1.36875 0.412498 0.909375 0.834373 0.628125 1.40625L0.421875 1.82812V9.14062C0.421875 15.0938 0.45 16.5187 0.553125 16.8187C0.73125 17.325 1.275 17.8969 1.82812 18.15C2.2875 18.3656 2.3625 18.375 4.99688 18.375C6.75 18.375 7.6875 18.4125 7.6875 18.4688C7.6875 18.525 7.35 19.2375 6.9375 20.0531L6.19688 21.5437L4.95 21.5812C3.9375 21.6 3.64688 21.6469 3.4125 21.7875C2.625 22.2656 2.625 23.3438 3.40313 23.8125C3.69375 23.9906 3.9375 24 12 24C20.0625 24 20.3063 23.9906 20.5969 23.8125C21.375 23.3438 21.375 22.2656 20.5875 21.7875C20.3531 21.6469 20.0625 21.6 19.05 21.5812L17.8031 21.5437L17.0625 20.0531C16.65 19.2375 16.3125 18.525 16.3125 18.4688C16.3125 18.4125 17.25 18.375 19.0125 18.375C21.6375 18.375 21.7125 18.3656 22.1719 18.15C22.725 17.8969 23.2688 17.325 23.4469 16.8187C23.55 16.5187 23.5781 15.0938 23.5781 9.14062C23.5781 0.99375 23.625 1.5375 22.9219 0.768749C22.7063 0.515625 22.3969 0.318748 22.0688 0.1875C21.5625 0 21.3938 0 11.9719 0C2.74688 0.00937462 2.37188 0.0187492 1.93125 0.1875ZM22.0312 1.05C22.2 1.17188 22.4344 1.3875 22.5375 1.52812C22.7344 1.79062 22.7344 1.86562 22.7625 8.11875L22.7812 14.4375H16.3031C12.7313 14.4375 9.84375 14.4094 9.87188 14.3719C9.90938 14.3344 10.2 14.2031 10.5281 14.0625L11.1094 13.8187L11.1375 12.8344C11.1562 12.1125 11.1281 11.8125 11.0438 11.7469C10.9781 11.7 10.6125 11.5312 10.2469 11.3812C9.60938 11.1281 9.55313 11.0812 9.43125 10.7062L9.29063 10.3031L9.70312 9.62812C9.9375 9.2625 10.125 8.8875 10.125 8.80312C10.125 8.56875 9.10313 7.21875 8.925 7.21875C8.84063 7.21875 8.44688 7.30312 8.0625 7.40625L7.35938 7.58437L7.02188 7.35938C6.65625 7.125 6.5625 6.84375 6.5625 5.99062C6.5625 5.75625 6.50625 5.50312 6.45 5.41875C6.32812 5.26875 4.96875 4.78125 4.66875 4.78125C4.58438 4.78125 4.26563 5.07187 3.975 5.4375C3.45938 6.05625 3.4125 6.09375 3.0375 6.09375C2.67188 6.09375 2.61563 6.05625 2.14688 5.48438C1.86563 5.15625 1.54688 4.85625 1.425 4.81875C1.20938 4.7625 1.20938 4.75312 1.2375 3.27187C1.26563 1.63125 1.3125 1.5 1.96875 1.05L2.27813 0.84375H12H21.7219L22.0312 1.05ZM5.25938 5.76562C5.76562 5.94375 5.8125 6.01875 5.8125 6.65625C5.8125 7.43437 5.86875 7.5375 6.55313 8.01562L7.19063 8.44687L7.79063 8.29687C8.11875 8.2125 8.45625 8.12812 8.54063 8.1C8.64375 8.07187 8.79375 8.18437 8.98125 8.44687L9.2625 8.83125L8.84063 9.51562L8.41875 10.2094L8.6625 10.95L8.91563 11.7L9.65625 12.0094L10.4062 12.3187V12.7969V13.2656L9.69375 13.5375C9.075 13.7719 8.95312 13.8562 8.85 14.1281L8.71875 14.4375H7.59375C6.975 14.4375 6.46875 14.4 6.46875 14.3625C6.46875 14.3156 6.53438 14.0812 6.61875 13.8375C6.73125 13.5094 6.75938 13.1719 6.73125 12.5719C6.70313 11.8781 6.64688 11.6437 6.39375 11.1375C6.01875 10.3781 5.35313 9.74062 4.51875 9.34687C3.95625 9.08437 3.79688 9.05625 3.04688 9.05625C2.40938 9.05625 2.08125 9.10312 1.71563 9.25312L1.21875 9.45V7.56562L1.22813 5.67188L1.4625 5.95312C2.29688 6.90937 2.175 6.84375 3.04688 6.84375H3.83438L4.33125 6.24375C4.60313 5.90625 4.8375 5.63437 4.8375 5.63437C4.84688 5.625 5.03438 5.69062 5.25938 5.76562ZM4.29375 10.1156C4.90313 10.425 5.4 10.9312 5.69063 11.5125C6.04688 12.2344 6.06563 13.3125 5.72813 13.9875L5.5125 14.4375H3.36563H1.21875V12.4312V10.425L1.47188 10.2562C2.18438 9.79687 3.53438 9.72187 4.29375 10.1156ZM22.7812 15.75C22.7812 16.0594 22.725 16.4531 22.65 16.6219C22.4906 17.0156 22.0312 17.4 21.5813 17.5312C21.1031 17.6625 2.89688 17.6625 2.41875 17.5312C1.96875 17.4 1.50938 17.0156 1.35 16.6219C1.275 16.4531 1.21875 16.0594 1.21875 15.75V15.1875H12H22.7812V15.75ZM16.1063 19.9219C16.5281 20.775 16.875 21.4875 16.875 21.5156C16.875 21.5437 14.6813 21.5625 12 21.5625C9.31875 21.5625 7.125 21.5437 7.125 21.5156C7.125 21.4875 7.47188 20.775 7.89375 19.9219L8.67188 18.375H12H15.3281L16.1063 19.9219ZM20.2125 22.4812C20.3719 22.5844 20.4188 22.8094 20.325 22.9875C20.25 23.1469 19.7531 23.1562 12 23.1562C4.24688 23.1562 3.75 23.1469 3.675 22.9875C3.58125 22.8094 3.62813 22.5844 3.7875 22.4812C3.91875 22.3875 20.0813 22.3875 20.2125 22.4812Z" fill="#EF5023"/>
<path d="M7.22813 3.01875C7.0125 3.65625 6.84375 4.2 6.84375 4.2375C6.84375 4.29375 7.35938 4.5 7.50938 4.5C7.56563 4.5 8.34375 2.31562 8.34375 2.14687C8.34375 2.10938 8.24063 2.05312 8.11875 2.025C7.99688 1.99687 7.82813 1.95 7.75313 1.9125C7.64063 1.875 7.52813 2.11875 7.22813 3.01875Z" fill="#EF5023"/>
<path d="M12.4406 2.03437C12.4031 2.0625 12.375 2.25937 12.375 2.45625V2.8125H12.7969H13.2188V2.39062V1.96875H12.8625C12.6656 1.96875 12.4688 1.99687 12.4406 2.03437Z" fill="#EF5023"/>
<path d="M14.0344 2.03437C13.9969 2.0625 13.9688 2.25937 13.9688 2.45625V2.8125H17.7656H21.5625V2.39062V1.96875H17.8313C15.7781 1.96875 14.0625 1.99687 14.0344 2.03437Z" fill="#EF5023"/>
<path d="M5.64377 2.55938C5.12815 3.08438 5.12815 3.30938 5.6719 3.84376L6.09377 4.25626L6.37502 3.98438L6.65627 3.71251L6.40315 3.45001L6.15002 3.18751L6.40315 2.92501L6.65627 2.66251L6.39377 2.40938C6.25315 2.26876 6.11252 2.15626 6.0844 2.15626C6.05627 2.15626 5.8594 2.33438 5.64377 2.55938Z" fill="#EF5023"/>
<path d="M8.78438 2.41875L8.53125 2.68125L8.78438 2.93437L9.0375 3.1875L8.78438 3.45L8.53125 3.7125L8.82188 3.99375L9.10313 4.26562L9.57188 3.77812C9.825 3.51562 10.0312 3.24375 10.0312 3.1875C10.0312 3.075 9.19688 2.15625 9.10313 2.15625C9.06563 2.15625 8.925 2.27812 8.78438 2.41875Z" fill="#EF5023"/>
<path d="M10.8469 3.62812C10.8094 3.65625 10.7812 3.85312 10.7812 4.05V4.40625H16.1719H21.5625V3.98437V3.5625H16.2375C13.3031 3.5625 10.875 3.59062 10.8469 3.62812Z" fill="#EF5023"/>
<path d="M10.8469 5.22188C10.8094 5.25 10.7812 5.44688 10.7812 5.64375V6H14.2125H17.6344L17.6062 5.59688L17.5781 5.20313L14.2406 5.175C12.4125 5.16563 10.8844 5.18438 10.8469 5.22188Z" fill="#EF5023"/>
<path d="M10.7812 7.21875V7.59375H14.2031H17.625V7.21875V6.84375H14.2031H10.7812V7.21875Z" fill="#EF5023"/>
<path d="M18.375 10.4062V12.375H18H17.625V11.3906V10.4062H17.2031H16.7813V11.3906V12.375H16.4063H16.0313V11.2031V10.0312H15.6094H15.1875V11.2031V12.375H14.8125H14.4469L14.4188 11.5969L14.3906 10.8281L13.9969 10.8L13.5938 10.7719V11.5687V12.375H13.2188H12.8438V12.7969V13.2188H17.2031H21.5625V12.7969V12.375H21.1875H20.8125V10.7812V9.1875H20.3906H19.9688V10.7812V12.375H19.5938H19.2188V10.4062V8.4375H18.7969H18.375V10.4062Z" fill="#EF5023"/>
<path d="M11.625 16.4062V16.7812H12H12.375V16.4062V16.0312H12H11.625V16.4062Z" fill="#EF5023"/>
</svg>
