<svg width="14" height="14" viewBox="0 0 14 14" fill="none" xmlns="http://www.w3.org/2000/svg">
<path fill-rule="evenodd" clip-rule="evenodd" d="M1.36392 1.41889C2.06219 0.441306 3.4658 0.353495 4.24906 1.30608C4.3151 1.38641 4.38168 1.46745 4.44826 1.5485C5.03015 2.25682 5.61175 2.9648 5.83534 3.18838C6.05165 3.4047 6.09298 3.74047 5.93559 4.00279L4.71084 6.04405C4.78933 6.1725 4.8957 6.32578 5.03177 6.50061C5.27441 6.81239 5.58446 7.1585 5.93022 7.50426C6.51249 8.08653 7.16436 8.63633 7.72548 9.00787L9.73498 7.80217C9.9797 7.65534 10.2907 7.68056 10.5086 7.86491L12.4477 9.50564C13.3502 10.2693 13.2924 11.6785 12.3303 12.3657C10.8467 13.4254 8.85278 13.6774 7.21913 12.6803C6.09292 11.993 4.71291 11.0226 3.47831 9.78805C2.36167 8.6714 1.54014 7.51489 0.960284 6.54276C-0.0341529 4.87558 0.313074 2.89007 1.36392 1.41889ZM3.21917 2.1529C3.0131 1.90228 2.65602 1.90389 2.4489 2.19387C1.62467 3.34779 1.44724 4.75634 2.10538 5.85973C2.64093 6.75757 3.39751 7.82162 4.42112 8.84524C5.55735 9.98147 6.84379 10.8892 7.91374 11.5422C9.01623 12.2151 10.4305 12.0841 11.5553 11.2807C11.81 11.0988 11.8253 10.7257 11.5864 10.5235L10.0117 9.19106L8.06395 10.3597C7.85774 10.4834 7.60088 10.4865 7.39176 10.3678C6.62622 9.93306 5.73143 9.19109 4.98741 8.44707C4.61176 8.07142 4.26316 7.68393 3.97955 7.31953C3.70385 6.96528 3.45984 6.59541 3.32864 6.2591C3.25365 6.06687 3.27189 5.85075 3.37806 5.67381L4.53815 3.74033C4.22696 3.38031 3.81353 2.87673 3.43136 2.41124C3.35922 2.32336 3.28818 2.23684 3.21917 2.1529Z" fill="#EF5023"/>
</svg>
