<svg width="22" height="22" viewBox="0 0 22 22" fill="none" xmlns="http://www.w3.org/2000/svg">
<path d="M14 0.999999C13.1 1.9 13.0625 2.3125 13.8125 4.375C14.1125 5.2375 14.375 6.0625 14.375 6.2125C14.375 6.7 11.1875 6.175 10.7375 5.575C10.325 5.0875 10.3625 4.8625 10.8875 4.3C11.4875 3.625 11.45 3.55 10.7 2.8C9.95 2.05 9.8375 2.0125 9.2375 2.575C8.4125 3.325 7.25 2.8375 7.25 1.75C7.25 1.15 6.9875 0.999999 6.125 0.999999C5.2625 0.999999 5 1.15 5 1.75C5 2.8375 3.8375 3.325 3.0125 2.575C2.4125 2.0125 2.3 2.05 1.55 2.8C0.8 3.55 0.7625 3.6625 1.325 4.2625C2.0375 5.0125 1.625 6.25 0.6875 6.25C0.3125 6.25 0.125 6.625 0.125 7.375C0.125 8.125 0.3125 8.5 0.6875 8.5C1.625 8.5 2.0375 9.7375 1.325 10.4875C0.7625 11.0875 0.8 11.2 1.55 11.95C2.3 12.7 2.4125 12.7375 3.0125 12.175C3.8375 11.425 5 11.9125 5 13C5 13.525 5.2625 13.75 5.9 13.75C6.5375 13.75 6.875 14.0125 7.025 14.65C7.325 15.925 9.6125 17.8 11.2625 18.1C12.05 18.25 13.3625 18.175 14.3375 17.9125L16.025 17.4625L17.975 19.4125C20 21.4 21.2 21.7375 21.425 20.3125C21.5 19.825 20.825 18.8875 19.5125 17.575C17.4875 15.55 17.4875 15.55 18.0125 14.425C18.7625 12.9625 18.4625 10.4125 17.4125 8.9125C16.9625 8.275 16.7375 7.75 16.9625 7.75C17.1875 7.75 17.375 7.3375 17.375 6.85C17.375 6.3625 17.6375 5.2375 17.9375 4.375C18.2375 3.5125 18.5 2.5375 18.5 2.275C18.5 1.375 17.0375 0.249999 15.875 0.249999C15.2375 0.249999 14.4125 0.587499 14 0.999999ZM17.4125 1.6C17.825 2.0875 17.7875 2.4625 17.3375 3.7375C16.925 5.0125 16.625 5.3125 15.875 5.3125C15.125 5.3125 14.825 5.0125 14.4125 3.7375C13.7375 1.8625 14.225 0.999999 15.875 0.999999C16.4375 0.999999 17.1125 1.2625 17.4125 1.6ZM6.5 2.425C6.5 3.2875 8.675 4.15 9.3875 3.55C10.0625 2.9875 10.475 3.475 9.9125 4.15C9.5375 4.5625 9.5375 4.9 9.9125 5.5375C10.2875 6.25 10.25 6.475 9.65 6.8875C9.0875 7.3 8.9 7.3 8.7875 6.925C8.4875 5.9125 7.1 4.75 6.1625 4.75C4.925 4.75 3.5 6.1375 3.5 7.3375C3.5 8.5375 4.8875 10 6.05 10C6.725 10 6.9125 10.15 6.725 10.6C6.6125 10.9375 6.5 11.6125 6.5 12.1C6.5 12.5875 6.35 13 6.125 13C5.9375 13 5.75 12.7 5.75 12.325C5.75 11.4625 3.575 10.6 2.8625 11.2C2.1875 11.725 1.775 11.3125 2.3 10.6375C2.825 10 2.075 7.75 1.3625 7.75C1.1 7.75 0.875 7.5625 0.875 7.375C0.875 7.15 1.1 7 1.3625 7C2.075 7 2.825 4.75 2.3 4.1125C1.775 3.4375 2.1875 3.025 2.8625 3.55C3.575 4.15 5.75 3.2875 5.75 2.425C5.75 2.05 5.9375 1.75 6.125 1.75C6.35 1.75 6.5 2.05 6.5 2.425ZM7.4 6.1C8.5625 7.225 7.7375 9.25 6.125 9.25C5.2625 9.25 4.25 8.275 4.25 7.4875C4.25 6.625 5.3375 5.5 6.1625 5.5C6.5375 5.5 7.1 5.7625 7.4 6.1ZM16.625 6.625C16.625 6.8125 16.2875 7 15.875 7C15.4625 7 15.125 6.8125 15.125 6.625C15.125 6.4 15.4625 6.25 15.875 6.25C16.2875 6.25 16.625 6.4 16.625 6.625ZM15.1625 7.8625C17.6 9.475 18.3875 12.5125 17 14.8C14.8625 18.325 10.1375 18.325 8 14.8C5.2625 10.3375 10.8125 4.9375 15.1625 7.8625ZM19.0625 18.25C20.075 19.2625 20.7875 20.2375 20.6375 20.3875C20.3375 20.65 16.625 17.2 16.625 16.675C16.625 16.0375 17.3 16.45 19.0625 18.25Z" fill="#EF5023"/>
</svg>
